name Walk2.mot
datacolumns 19
datarows 30
range 1.24500000 1.27400000
endheader

                time	   L_ground_force_vx	   L_ground_force_vy	   L_ground_force_vz	   L_ground_force_px	   L_ground_force_py	   L_ground_force_pz	   R_ground_force_vx	   R_ground_force_vy	   R_ground_force_vz	   R_ground_force_px	   R_ground_force_py	   R_ground_force_pz	   L_ground_torque_x	   L_ground_torque_y	   L_ground_torque_z	   R_ground_torque_x	   R_ground_torque_y	   R_ground_torque_z	
          1.24500000	          0.00000000	          0.00000000	          0.00000000	          0.00000000	          0.00000000	          0.00000000	          0.00000000	          0.00000000	          0.00000000	          0.00000000	          0.00000000	          0.00000000	          0.00000000	          0.00000000	          0.00000000	          0.00000000	          0.00000000	          0.00000000	
          1.24600000	          0.00000000	          0.00000000	          0.00000000	          0.00000000	          0.00000000	          0.00000000	          0.00000000	          0.00000000	          0.00000000	          0.00000000	          0.00000000	          0.00000000	          0.00000000	          0.00000000	          0.00000000	          0.00000000	          0.00000000	          0.00000000	
          1.24700000	          0.00000000	          0.00000000	          0.00000000	          0.00000000	          0.00000000	          0.00000000	          0.00000000	          0.00000000	          0.00000000	          0.00000000	          0.00000000	          0.00000000	          0.00000000	          0.00000000	          0.00000000	          0.00000000	          0.00000000	          0.00000000	
          1.24800000	          0.00000000	          0.00000000	          0.00000000	          0.00000000	          0.00000000	          0.00000000	          0.00000000	          0.00000000	          0.00000000	          0.00000000	          0.00000000	          0.00000000	          0.00000000	          0.00000000	          0.00000000	          0.00000000	          0.00000000	          0.00000000	
          1.24900000	          0.00000000	          0.00000000	          0.00000000	          0.00000000	          0.00000000	          0.00000000	          0.00000000	          0.00000000	          0.00000000	          0.00000000	          0.00000000	          0.00000000	          0.00000000	          0.00000000	          0.00000000	          0.00000000	          0.00000000	          0.00000000	
          1.25000000	          0.00000000	          0.00000000	          0.00000000	          0.00000000	          0.00000000	          0.00000000	         -1.98712782	          7.23823751	         -0.49458472	         -0.48322045	          0.00000000	         -0.04957769	          0.00000000	          0.00000000	          0.00000000	          0.00000000	         -0.02819931	          0.00000000	
          1.25100000	          0.00000000	          0.00000000	          0.00000000	          0.00000000	          0.00000000	          0.00000000	         -3.61598129	         16.08816209	         -1.00240007	         -0.48711815	          0.00000000	         -0.04581417	          0.00000000	          0.00000000	          0.00000000	          0.00000000	         -0.02314254	          0.00000000	
          1.25200000	          0.00000000	          0.00000000	          0.00000000	          0.00000000	          0.00000000	          0.00000000	         -5.57149319	         28.63432842	         -1.67063610	         -0.48940033	          0.00000000	         -0.04394807	          0.00000000	          0.00000000	          0.00000000	          0.00000000	         -0.00681389	          0.00000000	
          1.25300000	          0.00000000	          0.00000000	          0.00000000	          0.00000000	          0.00000000	          0.00000000	         -7.73394863	         45.31097190	         -2.47752133	         -0.49093384	          0.00000000	         -0.04310142	          0.00000000	          0.00000000	          0.00000000	          0.00000000	          0.02158745	          0.00000000	
          1.25400000	          0.00000000	          0.00000000	          0.00000000	          0.00000000	          0.00000000	          0.00000000	         -9.99390387	         66.71550326	         -3.40082667	         -0.49176926	          0.00000000	         -0.04293933	          0.00000000	          0.00000000	          0.00000000	          0.00000000	          0.05894909	          0.00000000	
          1.25500000	          0.00000000	          0.00000000	          0.00000000	          0.00000000	          0.00000000	          0.00000000	        -12.17575183	         93.09778195	         -4.41940581	         -0.49190082	          0.00000000	         -0.04308043	          0.00000000	          0.00000000	          0.00000000	          0.00000000	          0.10065667	          0.00000000	
          1.25600000	          0.00000000	          0.00000000	          0.00000000	          0.00000000	          0.00000000	          0.00000000	        -14.03635566	        123.78492036	         -5.52355552	         -0.49148105	          0.00000000	         -0.04320832	          0.00000000	          0.00000000	          0.00000000	          0.00000000	          0.14154890	          0.00000000	
          1.25700000	          0.00000000	          0.00000000	          0.00000000	          0.00000000	          0.00000000	          0.00000000	        -15.34914883	        156.92853065	         -6.72371069	         -0.49081172	          0.00000000	         -0.04321221	          0.00000000	          0.00000000	          0.00000000	          0.00000000	          0.17494657	          0.00000000	
          1.25800000	          0.00000000	          0.00000000	          0.00000000	          0.00000000	          0.00000000	          0.00000000	        -15.99310768	        189.73280602	         -8.04541153	         -0.49018445	          0.00000000	         -0.04313665	          0.00000000	          0.00000000	          0.00000000	          0.00000000	          0.19339503	          0.00000000	
          1.25900000	          0.00000000	          0.00000000	          0.00000000	          0.00000000	          0.00000000	          0.00000000	        -15.99710547	        219.12072473	         -9.51138907	         -0.48972179	          0.00000000	         -0.04304458	          0.00000000	          0.00000000	          0.00000000	          0.00000000	          0.19245224	          0.00000000	
          1.26000000	          0.00000000	          0.00000000	          0.00000000	          0.00000000	          0.00000000	          0.00000000	        -15.53486656	        242.54067277	        -11.12264535	         -0.48936919	          0.00000000	         -0.04297627	          0.00000000	          0.00000000	          0.00000000	          0.00000000	          0.17405079	          0.00000000	
          1.26100000	          0.00000000	          0.00000000	          0.00000000	          0.00000000	          0.00000000	          0.00000000	        -14.87856721	        258.52314613	        -12.84515816	         -0.48902804	          0.00000000	         -0.04296359	          0.00000000	          0.00000000	          0.00000000	          0.00000000	          0.14611680	          0.00000000	
          1.26200000	          0.00000000	          0.00000000	          0.00000000	          0.00000000	          0.00000000	          0.00000000	        -14.31536411	        266.81764155	        -14.60499997	         -0.48865759	          0.00000000	         -0.04301112	          0.00000000	          0.00000000	          0.00000000	          0.00000000	          0.11791941	          0.00000000	
          1.26300000	          0.00000000	          0.00000000	          0.00000000	          0.00000000	          0.00000000	          0.00000000	        -14.05375851	        268.21391049	        -16.30413252	         -0.48826815	          0.00000000	         -0.04308083	          0.00000000	          0.00000000	          0.00000000	          0.00000000	          0.09607543	          0.00000000	
          1.26400000	          0.00000000	          0.00000000	          0.00000000	          0.00000000	          0.00000000	          0.00000000	        -14.17351986	        264.21470926	        -17.84789076	         -0.48789684	          0.00000000	         -0.04311711	          0.00000000	          0.00000000	          0.00000000	          0.00000000	          0.08481254	          0.00000000	
          1.26500000	          0.00000000	          0.00000000	          0.00000000	          0.00000000	          0.00000000	          0.00000000	        -14.64529524	        256.67010269	        -19.16224437	         -0.48759945	          0.00000000	         -0.04310380	          0.00000000	          0.00000000	          0.00000000	          0.00000000	          0.08692424	          0.00000000	
          1.26600000	          0.00000000	          0.00000000	          0.00000000	          0.00000000	          0.00000000	          0.00000000	        -15.38053242	        247.43596575	        -20.20524592	         -0.48741414	          0.00000000	         -0.04310171	          0.00000000	          0.00000000	          0.00000000	          0.00000000	          0.10275712	          0.00000000	
          1.26700000	          0.00000000	          0.00000000	          0.00000000	          0.00000000	          0.00000000	          0.00000000	        -16.26806253	        238.11432863	        -20.97708760	         -0.48731423	          0.00000000	         -0.04320439	          0.00000000	          0.00000000	          0.00000000	          0.00000000	          0.12900788	          0.00000000	
          1.26800000	          0.00000000	          0.00000000	          0.00000000	          0.00000000	          0.00000000	          0.00000000	        -17.20792034	        229.91364014	        -21.51419744	         -0.48720652	          0.00000000	         -0.04345960	          0.00000000	          0.00000000	          0.00000000	          0.00000000	          0.15913994	          0.00000000	
          1.26900000	          0.00000000	          0.00000000	          0.00000000	          0.00000000	          0.00000000	          0.00000000	        -18.14315880	        223.61145789	        -21.87055285	         -0.48698646	          0.00000000	         -0.04382909	          0.00000000	          0.00000000	          0.00000000	          0.00000000	          0.18642161	          0.00000000	
          1.27000000	          0.00000000	          0.00000000	          0.00000000	          0.00000000	          0.00000000	          0.00000000	        -19.06277387	        219.58750831	        -22.10969141	         -0.48659096	          0.00000000	         -0.04418203	          0.00000000	          0.00000000	          0.00000000	          0.00000000	          0.20916417	          0.00000000	
          1.27100000	          0.00000000	          0.00000000	          0.00000000	          0.00000000	          0.00000000	          0.00000000	        -19.98869890	        217.92650384	        -22.30308877	         -0.48599498	          0.00000000	         -0.04435617	          0.00000000	          0.00000000	          0.00000000	          0.00000000	          0.23228544	          0.00000000	
          1.27200000	          0.00000000	          0.00000000	          0.00000000	          0.00000000	          0.00000000	          0.00000000	        -20.96854344	        218.55041092	        -22.51576768	         -0.48518937	          0.00000000	         -0.04429240	          0.00000000	          0.00000000	          0.00000000	          0.00000000	          0.26181465	          0.00000000	
          1.27300000	          0.00000000	          0.00000000	          0.00000000	          0.00000000	          0.00000000	          0.00000000	        -22.06132817	        221.27600351	        -22.78484496	         -0.48419864	          0.00000000	         -0.04410280	          0.00000000	          0.00000000	          0.00000000	          0.00000000	          0.30025108	          0.00000000	
          1.27400000	          0.00000000	          0.00000000	          0.00000000	          0.00000000	          0.00000000	          0.00000000	        -23.31043746	        225.80900393	        -23.10252096	         -0.48309290	          0.00000000	         -0.04398609	          0.00000000	          0.00000000	          0.00000000	          0.00000000	          0.34766872	          0.00000000	
